<?xml version="1.0" encoding="iso-8859-1"?>
<!-- Generator: Adobe Illustrator 18.0.0, SVG Export Plug-In . SVG Version: 6.00 Build 0)  -->
<!DOCTYPE svg PUBLIC "-//W3C//DTD SVG 1.1//EN" "http://www.w3.org/Graphics/SVG/1.1/DTD/svg11.dtd">
<svg version="1.1" id="Capa_1" xmlns="http://www.w3.org/2000/svg" xmlns:xlink="http://www.w3.org/1999/xlink" x="0px" y="0px"
	 viewBox="0 0 51.793 51.793" style="enable-background:new 0 0 51.793 51.793;" xml:space="preserve">
<g>
	<path style="fill:#4C312C;" d="M40.876,5.316c-0.213,0-0.428-0.068-0.609-0.208c-0.438-0.337-0.519-0.965-0.182-1.402
		c1.356-1.761,3.189-2.998,5.16-3.483c2.055-0.505,4.015-0.144,5.522,1.018c0.438,0.337,0.519,0.965,0.182,1.402
		c-0.338,0.437-0.966,0.518-1.402,0.182c-1.016-0.783-2.372-1.015-3.824-0.66c-1.532,0.377-2.973,1.358-4.054,2.762
		C41.473,5.182,41.176,5.316,40.876,5.316z"/>
	<path style="fill:#436B1C;" d="M6.914,49.048L6.914,49.048c-8.105-5.784-7.778-17.04-2.347-25.858
		c1.985-3.223,4.705-5.931,7.785-8.131L26.934,4.643c3.816-3.305,8.259-4.212,12.511-1.177l0,0C43.698,6.5,44.284,10.997,42.4,15.68
		l-5.11,17.176c-1.079,3.628-2.756,7.08-5.159,10.005C25.557,50.864,15.019,54.832,6.914,49.048z"/>
	<path style="fill:#F9EA80;" d="M9.582,45.309L9.582,45.309C3.625,41.057,4.47,31.934,9.132,24.515
		c1.704-2.712,3.948-5.046,6.444-6.988l7.891-5.04c2.423-1.547,4.814-3.153,7.05-4.96c2.226-1.8,4.15-2.558,6.606-0.805l0,0
		c2.518,1.797,2.371,3.933,1.327,6.729c-0.652,1.748-1.224,3.53-1.665,5.342L33.907,30.61c-1.025,2.992-2.503,5.873-4.514,8.366
		C23.892,45.796,15.54,49.561,9.582,45.309z"/>
	<path style="fill:#A46F3E;" d="M24.024,37.754c-2.832,3.969-7.81,5.273-11.117,2.912c-3.307-2.36-3.692-7.491-0.86-11.46
		s10.374-8.865,13.681-6.505S26.856,33.785,24.024,37.754z"/>
	<circle style="fill:#DC9628;" cx="13.868" cy="35.044" r="1.5"/>
	<circle style="fill:#DC9628;" cx="17.894" cy="31.837" r="1.5"/>
	<circle style="fill:#DC9628;" cx="18.307" cy="37.344" r="1.5"/>
</g>
<g>
</g>
<g>
</g>
<g>
</g>
<g>
</g>
<g>
</g>
<g>
</g>
<g>
</g>
<g>
</g>
<g>
</g>
<g>
</g>
<g>
</g>
<g>
</g>
<g>
</g>
<g>
</g>
<g>
</g>
</svg>
