<?xml version="1.0" encoding="iso-8859-1"?>
<!-- Generator: Adobe Illustrator 18.0.0, SVG Export Plug-In . SVG Version: 6.00 Build 0)  -->
<!DOCTYPE svg PUBLIC "-//W3C//DTD SVG 1.1//EN" "http://www.w3.org/Graphics/SVG/1.1/DTD/svg11.dtd">
<svg version="1.1" id="Capa_1" xmlns="http://www.w3.org/2000/svg" xmlns:xlink="http://www.w3.org/1999/xlink" x="0px" y="0px"
	 viewBox="0 0 54.354 54.354" style="enable-background:new 0 0 54.354 54.354;" xml:space="preserve">
<g>
	<g>
		<path style="fill:#F9E280;" d="M51.169,8.959c-0.154-0.291-0.306-0.583-0.474-0.87c-0.619-1.056-1.335-2.023-2.105-2.939
			c2.132,8.869-1.562,18.182-7.06,24.259c-11.103,12.273-21.646,16.44-29.053,17.148c-1.766,0.722-3.57,1.299-5.527,1.749
			c-0.088,0.02-0.17,0.026-0.255,0.04c1.001,0.153,2.221,0.27,3.652,0.27c7.072,0,19.057-2.821,32.666-17.865
			C48.026,25.209,51.628,17.139,51.169,8.959z"/>
		<path style="fill:#F9E280;" d="M3.728,47.42l-0.075,0.191c0.067,0.026,0.279,0.105,0.618,0.207
			C4.078,47.696,3.899,47.56,3.728,47.42z"/>
	</g>
	<g>
		<path style="fill:#F9D70B;" d="M6.949,48.306c0.493-0.114,0.977-0.235,1.453-0.365C7.926,48.071,7.442,48.193,6.949,48.306z"/>
		<path style="fill:#E8C52E;" d="M48.411,4.925L45.324,0L43.13,1.446l2.623,5.039c0.222,0.7,0.538,1.441,0.542,2.115
			c0.067,10.542-8.436,21.51-20.674,30.164c-5.038,3.563-8.902,6.035-12.955,7.718c-0.064,0.026-0.128,0.049-0.192,0.075
			c0.001,0,0.002-0.001,0.002-0.001c7.407-0.708,17.95-4.876,29.053-17.148c5.497-6.076,9.191-15.387,7.061-24.255
			C48.529,5.08,48.474,4.998,48.411,4.925z"/>
		<path style="fill:#F9D70B;" d="M9.634,47.578c0.051-0.016,0.104-0.03,0.155-0.046C9.738,47.548,9.685,47.562,9.634,47.578z"/>
		<path style="fill:#F9D70B;" d="M51.131,8.89c0.012,0.023,0.025,0.045,0.037,0.068c0.46,8.18-3.142,16.25-8.156,21.792
			C29.403,45.795,17.418,48.616,10.346,48.616c-1.431,0-2.651-0.117-3.652-0.27c0.085-0.013,0.167-0.019,0.255-0.04
			c-1.078,0.248-1.959-0.035-2.677-0.488c-0.339-0.102-0.551-0.181-0.618-0.207l0.075-0.191c-0.893-0.733-1.48-1.611-1.85-1.621
			c-0.72-0.02-1.2,1.478-1.254,2.536c8.653,9.16,21.722,7.076,35.425-0.952C51.212,38.499,57.806,21.452,51.131,8.89L51.131,8.89z"
			/>
	</g>
	<path style="fill:#B58C30;" d="M47.313,8.272l1.599-0.384c0.703-0.169,1.009-1.001,0.584-1.587
		c-0.332-0.458-0.68-0.902-1.045-1.329C48.425,4.94,48.4,4.907,48.378,4.872l-2.504-3.994c-0.302-0.481-0.94-0.62-1.414-0.307
		l-0.567,0.374c-0.433,0.285-0.58,0.852-0.341,1.312l2.164,4.158c0.025,0.048,0.045,0.097,0.062,0.149
		c0.109,0.335,0.233,0.677,0.333,1.017C46.261,8.094,46.791,8.397,47.313,8.272z"/>
</g>
<g>
</g>
<g>
</g>
<g>
</g>
<g>
</g>
<g>
</g>
<g>
</g>
<g>
</g>
<g>
</g>
<g>
</g>
<g>
</g>
<g>
</g>
<g>
</g>
<g>
</g>
<g>
</g>
<g>
</g>
</svg>
