<?xml version="1.0" encoding="iso-8859-1"?>
<!-- Generator: Adobe Illustrator 18.0.0, SVG Export Plug-In . SVG Version: 6.00 Build 0)  -->
<!DOCTYPE svg PUBLIC "-//W3C//DTD SVG 1.1//EN" "http://www.w3.org/Graphics/SVG/1.1/DTD/svg11.dtd">
<svg version="1.1" id="Capa_1" xmlns="http://www.w3.org/2000/svg" xmlns:xlink="http://www.w3.org/1999/xlink" x="0px" y="0px"
	 viewBox="0 0 53.308 53.308" style="enable-background:new 0 0 53.308 53.308;" xml:space="preserve">
<g>
	<path style="fill:#003879;" d="M39.685,2.953c-7.524,0-13.623,6.099-13.623,13.623c0,2.243,0.552,4.353,1.512,6.219
		c1.496-0.565,3.11-0.888,4.804-0.888c5.281,0,9.851,3.011,12.111,7.404c5.15-1.944,8.819-6.905,8.819-12.735
		C53.308,9.052,47.208,2.953,39.685,2.953z"/>
	<path style="fill:#1A49C1;" d="M18.754,35.53c0-5.652,3.443-10.499,8.345-12.561c-0.927-6.622-6.598-11.723-13.475-11.723
		C6.099,11.245,0,17.344,0,24.868c0,7.524,6.099,13.623,13.623,13.623c1.872,0,3.655-0.379,5.279-1.062
		C18.814,36.807,18.754,36.176,18.754,35.53z"/>
	<circle style="fill:#415CCE;" cx="32.577" cy="35.53" r="14.825"/>
	<path style="fill:#121C60;" d="M28.103,32.153c-0.317,0-0.629-0.15-0.824-0.432c-0.314-0.454-0.2-1.077,0.254-1.391l2.841-1.964
		c1.132-0.781,2.656-0.705,3.704,0.186l2.165,1.839c0.421,0.357,0.472,0.989,0.115,1.41c-0.358,0.421-0.989,0.473-1.41,0.115
		l-2.165-1.839c-0.355-0.302-0.89-0.328-1.272-0.064l-2.841,1.964C28.497,32.095,28.299,32.153,28.103,32.153z"/>
	<path style="fill:#121C60;" d="M28.606,28.597h-2.355c-0.552,0-1-0.448-1-1s0.448-1,1-1h2.355c0.48,0,0.81-0.283,0.839-0.398
		l0.45-1.788c0.135-0.536,0.679-0.859,1.214-0.726c0.536,0.135,0.86,0.678,0.726,1.214l-0.45,1.788
		C31.109,27.776,29.915,28.597,28.606,28.597z"/>
	<path style="fill:#121C60;" d="M37.842,28.597c-0.029,0-0.059-0.001-0.089-0.004l-2.894-0.256
		c-1.329-0.118-2.405-1.042-2.502-2.149l-0.126-1.446c-0.048-0.55,0.359-1.035,0.909-1.083c0.564-0.059,1.035,0.36,1.083,0.909
		l0.126,1.445c0.025,0.069,0.27,0.294,0.686,0.331l2.895,0.256c0.55,0.049,0.957,0.534,0.908,1.084
		C38.791,28.205,38.355,28.597,37.842,28.597z"/>
	<path style="fill:#121C60;" d="M9.262,21.651c-0.317,0-0.629-0.15-0.824-0.432c-0.314-0.454-0.2-1.077,0.254-1.391l2.841-1.964
		c1.132-0.781,2.656-0.704,3.704,0.186l2.165,1.838c0.421,0.357,0.472,0.988,0.115,1.41s-0.988,0.471-1.41,0.115l-2.166-1.839
		c-0.354-0.301-0.889-0.329-1.271-0.064L9.83,21.474C9.656,21.593,9.458,21.651,9.262,21.651z"/>
	<path style="fill:#121C60;" d="M9.765,18.095H7.41c-0.552,0-1-0.448-1-1s0.448-1,1-1h2.355c0.48,0,0.81-0.283,0.839-0.398
		l0.45-1.788c0.135-0.536,0.678-0.86,1.214-0.726c0.536,0.135,0.86,0.678,0.726,1.214l-0.45,1.788
		C12.269,17.274,11.074,18.095,9.765,18.095z"/>
	<path style="fill:#121C60;" d="M19.001,18.095c-0.029,0-0.059-0.001-0.089-0.004l-2.894-0.256
		c-1.329-0.118-2.405-1.042-2.502-2.149l-0.126-1.445c-0.048-0.55,0.359-1.036,0.909-1.083c0.565-0.057,1.036,0.359,1.083,0.909
		l0.126,1.445c0.025,0.069,0.27,0.295,0.686,0.332l2.895,0.256c0.55,0.049,0.957,0.534,0.908,1.084
		C19.95,17.703,19.514,18.095,19.001,18.095z"/>
	<path style="fill:#0A1135;" d="M35.262,13.153c-0.317,0-0.629-0.15-0.824-0.432c-0.314-0.454-0.2-1.077,0.254-1.391l2.841-1.964
		c1.132-0.782,2.655-0.704,3.704,0.186l2.165,1.838c0.421,0.357,0.472,0.988,0.115,1.41s-0.989,0.472-1.41,0.115l-2.166-1.839
		c-0.354-0.301-0.888-0.328-1.271-0.064l-2.841,1.964C35.656,13.095,35.458,13.153,35.262,13.153z"/>
	<path style="fill:#0A1135;" d="M35.765,9.597H33.41c-0.552,0-1-0.448-1-1s0.448-1,1-1h2.355c0.48,0,0.81-0.283,0.839-0.398
		l0.45-1.788c0.135-0.536,0.677-0.86,1.214-0.726c0.536,0.135,0.86,0.678,0.726,1.214l-0.45,1.788
		C38.269,8.776,37.074,9.597,35.765,9.597z"/>
	<path style="fill:#0A1135;" d="M45.001,9.597c-0.029,0-0.059-0.001-0.089-0.004l-2.894-0.256c-1.329-0.118-2.405-1.042-2.502-2.149
		l-0.126-1.445c-0.048-0.55,0.359-1.036,0.909-1.083c0.563-0.057,1.036,0.359,1.083,0.909l0.126,1.445
		c0.025,0.069,0.27,0.295,0.686,0.332l2.895,0.256c0.55,0.049,0.957,0.534,0.908,1.084C45.95,9.205,45.514,9.597,45.001,9.597z"/>
	<path style="fill:#3265D6;" d="M7.022,32.153c-0.174,0-0.352-0.045-0.512-0.142c-4.247-2.539-3.635-9.125-3.607-9.404
		c0.056-0.549,0.55-0.942,1.094-0.895c0.549,0.055,0.95,0.544,0.896,1.093c-0.005,0.056-0.51,5.604,2.643,7.489
		c0.474,0.283,0.628,0.897,0.345,1.372C7.693,31.979,7.362,32.153,7.022,32.153z"/>
	<path style="fill:#447CE0;" d="M24.35,43.307c-0.175,0-0.352-0.045-0.512-0.142c-4.247-2.539-3.635-9.125-3.607-9.404
		c0.056-0.549,0.55-0.944,1.094-0.895c0.549,0.055,0.95,0.544,0.896,1.093c-0.005,0.056-0.51,5.604,2.643,7.489
		c0.474,0.283,0.628,0.897,0.345,1.372C25.022,43.133,24.69,43.307,24.35,43.307z"/>
	<path style="fill:#1951A3;" d="M29.743,20.366c-0.324,0-0.642-0.157-0.834-0.448c-2.733-4.125,0.665-9.8,0.811-10.04
		c0.288-0.471,0.902-0.62,1.373-0.333c0.471,0.287,0.622,0.901,0.335,1.373c-0.029,0.048-2.881,4.833-0.853,7.896
		c0.305,0.46,0.179,1.081-0.281,1.386C30.124,20.313,29.932,20.366,29.743,20.366z"/>
</g>
<g>
</g>
<g>
</g>
<g>
</g>
<g>
</g>
<g>
</g>
<g>
</g>
<g>
</g>
<g>
</g>
<g>
</g>
<g>
</g>
<g>
</g>
<g>
</g>
<g>
</g>
<g>
</g>
<g>
</g>
</svg>
