<?xml version="1.0" encoding="iso-8859-1"?>
<!-- Generator: Adobe Illustrator 18.0.0, SVG Export Plug-In . SVG Version: 6.00 Build 0)  -->
<!DOCTYPE svg PUBLIC "-//W3C//DTD SVG 1.1//EN" "http://www.w3.org/Graphics/SVG/1.1/DTD/svg11.dtd">
<svg version="1.1" id="Capa_1" xmlns="http://www.w3.org/2000/svg" xmlns:xlink="http://www.w3.org/1999/xlink" x="0px" y="0px"
	 viewBox="0 0 57.614 57.614" style="enable-background:new 0 0 57.614 57.614;" xml:space="preserve">
<g>
	<path style="fill:#D13834;" d="M2.807,37.614c0-7.738,5.367-14,12-14h2c6.633,0,12,6.262,12,14c0,7.18-5.82,13-13,13
		S2.807,44.793,2.807,37.614z"/>
	<path style="fill:#ED3F32;" d="M13.764,47.386c-0.072,0-0.146-0.008-0.219-0.024c-3.556-0.796-6.448-3.395-7.548-6.784
		c-0.17-0.525,0.117-1.089,0.643-1.26c0.527-0.169,1.09,0.117,1.26,0.643c0.869,2.678,3.257,4.817,6.082,5.449
		c0.539,0.121,0.878,0.655,0.758,1.194C14.634,47.069,14.222,47.386,13.764,47.386z"/>
	<path style="fill:#ED3F32;" d="M6.735,36.212c-0.065,0-0.132-0.006-0.199-0.02c-0.541-0.109-0.892-0.637-0.783-1.178
		c0.273-1.354,0.77-2.627,1.476-3.785c0.288-0.471,0.904-0.619,1.375-0.333c0.471,0.288,0.62,0.903,0.333,1.375
		c-0.584,0.958-0.996,2.014-1.222,3.139C7.619,35.884,7.201,36.212,6.735,36.212z"/>
	<path style="fill:#ED3F32;" d="M28.807,44.614c0-7.738,5.367-14,12-14h2c6.633,0,12,6.262,12,14c0,7.18-5.82,13-13,13
		S28.807,51.793,28.807,44.614z"/>
	<path style="fill:#ED3F32;" d="M23.807,33.614c-3.309,0-6-2.691-6-6c0-0.552,0.448-1,1-1s1,0.448,1,1c0,2.206,1.794,4,4,4
		c0.552,0,1,0.448,1,1S24.359,33.614,23.807,33.614z"/>
	<path style="fill:#ED7161;" d="M47.807,40.614c-3.309,0-6-2.691-6-6c0-0.552,0.448-1,1-1s1,0.448,1,1c0,2.206,1.794,4,4,4
		c0.552,0,1,0.448,1,1S48.359,40.614,47.807,40.614z"/>
	<path style="fill:#4C312C;" d="M45.806,36.614c-0.164,0-0.331-0.041-0.485-0.126c-0.482-0.268-0.657-0.877-0.388-1.36
		c4.228-7.61,3.538-14.017-2.958-24.461c-1.583,11.013-11.42,19.919-19.596,19.919c-0.552,0-1-0.448-1-1s0.448-1,1-1
		c7.853,0,17.816-9.875,17.816-20.972c0-0.44,0.289-0.83,0.71-0.957c0.421-0.128,0.877,0.036,1.122,0.402
		c7.181,10.772,10.245,18.977,4.654,29.041C46.498,36.428,46.157,36.614,45.806,36.614z"/>
	<path style="fill:#88C057;" d="M40.807,7.092c4.012,2.941,10.148,1.38,13.089-2.632C49.884,1.518,43.748,3.08,40.807,7.092z"/>
	<path style="fill:#659C35;" d="M29.807,0.11c0.757,4.917,6.2,8.151,11.117,7.394C40.166,2.587,34.723-0.647,29.807,0.11z"/>
	<path style="fill:#ED7161;" d="M39.623,54.731c-0.072,0-0.146-0.008-0.219-0.024c-3.556-0.796-6.448-3.396-7.548-6.785
		c-0.17-0.525,0.117-1.089,0.643-1.26c0.526-0.171,1.09,0.117,1.26,0.643c0.869,2.678,3.257,4.817,6.082,5.45
		c0.539,0.121,0.878,0.656,0.758,1.194C40.493,54.415,40.08,54.731,39.623,54.731z"/>
</g>
<g>
</g>
<g>
</g>
<g>
</g>
<g>
</g>
<g>
</g>
<g>
</g>
<g>
</g>
<g>
</g>
<g>
</g>
<g>
</g>
<g>
</g>
<g>
</g>
<g>
</g>
<g>
</g>
<g>
</g>
</svg>
