<?xml version="1.0" encoding="iso-8859-1"?>
<!-- Generator: Adobe Illustrator 19.0.0, SVG Export Plug-In . SVG Version: 6.00 Build 0)  -->
<svg version="1.1" id="Layer_1" xmlns="http://www.w3.org/2000/svg" xmlns:xlink="http://www.w3.org/1999/xlink" x="0px" y="0px"
	 viewBox="0 0 495.112 495.112" style="enable-background:new 0 0 495.112 495.112;" xml:space="preserve">
<g>
	<path style="fill:#FFDA44;" d="M404.913,4.818c-12.63,0-25.014,2.764-36.337,8.057C345.268,4.364,320.129,0.056,293.7,0.056
		c-72.642,0-146.986,32.683-203.972,89.668c-79.183,79.183-109.332,189.964-76.84,278.853c-6.54,14.037-9.226,29.77-7.608,45.268
		c2.022,19.386,10.736,37.662,24.536,51.461L465.302,29.82C449.178,13.697,427.732,4.818,404.913,4.818z"/>
	<path style="fill:#FFCD00;" d="M482.23,126.523c6.541-14.026,9.226-29.749,7.608-45.246c-2.022-19.383-10.736-37.657-24.536-51.458
		L29.816,465.306c16.119,16.119,37.557,24.997,60.363,24.997c12.643,0,25.036-2.771,36.369-8.078
		c23.312,8.519,48.456,12.831,74.89,12.831c72.618,0,146.953-32.687,203.944-89.678C484.559,326.202,514.713,215.421,482.23,126.523
		z M272.852,410.819h-40v-40h40V410.819z M328.852,345.492h-40v-40h40V345.492z"/>
	<rect x="232.852" y="370.819" style="fill:#FFFFFF;" width="40" height="40"/>
	<rect x="288.852" y="305.492" style="fill:#FFFFFF;" width="40" height="40"/>
</g>
<g>
</g>
<g>
</g>
<g>
</g>
<g>
</g>
<g>
</g>
<g>
</g>
<g>
</g>
<g>
</g>
<g>
</g>
<g>
</g>
<g>
</g>
<g>
</g>
<g>
</g>
<g>
</g>
<g>
</g>
</svg>
