<?xml version="1.0" encoding="iso-8859-1"?>
<!-- Generator: Adobe Illustrator 18.0.0, SVG Export Plug-In . SVG Version: 6.00 Build 0)  -->
<!DOCTYPE svg PUBLIC "-//W3C//DTD SVG 1.1//EN" "http://www.w3.org/Graphics/SVG/1.1/DTD/svg11.dtd">
<svg version="1.1" id="Capa_1" xmlns="http://www.w3.org/2000/svg" xmlns:xlink="http://www.w3.org/1999/xlink" x="0px" y="0px"
	 viewBox="0 0 51.346 51.346" style="enable-background:new 0 0 51.346 51.346;" xml:space="preserve">
<g>
	<path style="fill:#88C057;" d="M48.971,30.738H48.77c-1.242-7.791-8.122-13.752-16.424-13.752s-15.181,5.961-16.424,13.752h-0.201
		c-1.306,0-2.375,1.303-2.375,2.895s1.069,2.895,2.375,2.895h0.333c1.54,7.433,8.249,13.029,16.292,13.029
		s14.751-5.595,16.292-13.029h0.333c1.306,0,2.375-1.303,2.375-2.895S50.277,30.738,48.971,30.738z"/>
	<path style="fill:#659C35;" d="M13.346,33.633c0-1.592,1.069-2.895,2.375-2.895h0.201c1.242-7.791,8.122-13.752,16.424-13.752
		c0.31,0,0.613,0.025,0.918,0.041c-0.451-4.991-3.176-9.758-7.811-12.659c-7.038-4.404-16.032-3-21.218,2.946L4.065,7.207
		C2.958,6.514,1.361,7.051,0.516,8.401c-0.845,1.35-0.63,3.021,0.478,3.714l0.282,0.177c-2.637,7.119,0.081,15.42,6.9,19.687
		c1.654,1.035,3.417,1.743,5.212,2.153C13.364,33.969,13.346,33.803,13.346,33.633z"/>
	<path style="fill:#A4E869;" d="M42.346,30.057c-0.553,0-1-0.448-1-1c0-2.481-2.019-4.5-4.5-4.5c-0.553,0-1-0.448-1-1s0.447-1,1-1
		c3.584,0,6.5,2.916,6.5,6.5C43.346,29.609,42.899,30.057,42.346,30.057z"/>
	<path style="fill:#A4E869;" d="M10.644,8.557c-0.194,0-0.39-0.056-0.563-0.174C9.625,8.072,9.507,7.45,9.819,6.993
		c2.189-3.211,6.689-3.97,10.032-1.691c0.456,0.311,0.574,0.933,0.263,1.39c-0.312,0.456-0.933,0.574-1.39,0.263
		c-2.432-1.659-5.684-1.134-7.253,1.166C11.278,8.404,10.963,8.557,10.644,8.557z"/>
</g>
<g>
</g>
<g>
</g>
<g>
</g>
<g>
</g>
<g>
</g>
<g>
</g>
<g>
</g>
<g>
</g>
<g>
</g>
<g>
</g>
<g>
</g>
<g>
</g>
<g>
</g>
<g>
</g>
<g>
</g>
</svg>
