<?xml version="1.0" encoding="iso-8859-1"?>
<!-- Generator: Adobe Illustrator 18.0.0, SVG Export Plug-In . SVG Version: 6.00 Build 0)  -->
<!DOCTYPE svg PUBLIC "-//W3C//DTD SVG 1.1//EN" "http://www.w3.org/Graphics/SVG/1.1/DTD/svg11.dtd">
<svg version="1.1" id="Capa_1" xmlns="http://www.w3.org/2000/svg" xmlns:xlink="http://www.w3.org/1999/xlink" x="0px" y="0px"
	 viewBox="0 0 54.68 54.68" style="enable-background:new 0 0 54.68 54.68;" xml:space="preserve">
<g>
	<path style="fill:#E58D51;" d="M40.801,11.922c-1.778,0.655-3.721,0.907-5.695,0.67l-5.07-0.609l1.712-3.884
		C30.32,7.828,28.848,7.68,27.34,7.68c-12.979,0-23.5,10.521-23.5,23.5s10.521,23.5,23.5,23.5s23.5-10.521,23.5-23.5
		C50.84,23.21,46.869,16.171,40.801,11.922z"/>
	<path style="fill:#FBD490;" d="M10.064,38.138c-0.413,0-0.799-0.258-0.943-0.669c-1.36-3.875-1.479-8.152-0.335-12.044
		c0.156-0.53,0.714-0.833,1.241-0.678c0.53,0.156,0.833,0.711,0.678,1.241c-1.026,3.494-0.918,7.336,0.303,10.818
		c0.183,0.521-0.091,1.092-0.612,1.274C10.286,38.12,10.174,38.138,10.064,38.138z"/>
	<path style="fill:#FBD490;" d="M11.385,22.851c-0.168,0-0.339-0.042-0.496-0.132c-0.479-0.274-0.646-0.885-0.371-1.364
		c0.749-1.31,1.656-2.526,2.697-3.618c0.381-0.4,1.015-0.414,1.414-0.034c0.4,0.381,0.415,1.014,0.034,1.414
		c-0.929,0.975-1.739,2.062-2.409,3.231C12.069,22.67,11.732,22.851,11.385,22.851z"/>
	<path style="fill:#CE6B29;" d="M39.964,50.997c2.392-1.527,4.492-3.47,6.19-5.734c0.809-2.232,1.252-4.603,1.325-6.901
		c0.227-7.216-3.068-15.469-10.943-17.639l-0.017,0.063c-0.01-0.005-0.017-0.014-0.028-0.019c-0.096-0.041-2.385-0.994-6.469-1.081
		c-3.508-0.074-6.547-0.525-8.207-5.318c-0.185-0.534-0.763-0.816-1.295-0.63c-0.529,0.188-0.809,0.773-0.623,1.308
		c2.086,6.023,6.298,6.613,10.082,6.693c3.635,0.077,5.68,0.903,5.726,0.922c0.128,0.054,0.26,0.08,0.391,0.08
		c0.003,0,0.006-0.001,0.009-0.001c6.727,1.923,9.542,9.182,9.342,15.558C45.3,42.965,43.53,47.986,39.964,50.997z"/>
	<polygon style="fill:#A46F3E;" points="31.24,17 29.64,17 28.84,11 32.04,11 	"/>
	<path style="fill:#659C35;" d="M49.84,0.697l-5.07-0.609c-5.354-0.643-10.499,2.289-12.674,7.223l-2.06,4.672l5.07,0.609
		c5.354,0.643,10.499-2.289,12.674-7.223L49.84,0.697z"/>
	<path style="fill:#88C057;" d="M30.036,11.984l2.266,0.272l10.076-6.412c0.466-0.296,0.603-0.915,0.307-1.381
		c-0.296-0.465-0.914-0.604-1.381-0.307L30.439,11.07L30.036,11.984z"/>
</g>
<g>
</g>
<g>
</g>
<g>
</g>
<g>
</g>
<g>
</g>
<g>
</g>
<g>
</g>
<g>
</g>
<g>
</g>
<g>
</g>
<g>
</g>
<g>
</g>
<g>
</g>
<g>
</g>
<g>
</g>
</svg>
