<?xml version="1.0" encoding="iso-8859-1"?>
<!-- Generator: Adobe Illustrator 18.0.0, SVG Export Plug-In . SVG Version: 6.00 Build 0)  -->
<!DOCTYPE svg PUBLIC "-//W3C//DTD SVG 1.1//EN" "http://www.w3.org/Graphics/SVG/1.1/DTD/svg11.dtd">
<svg version="1.1" id="Capa_1" xmlns="http://www.w3.org/2000/svg" xmlns:xlink="http://www.w3.org/1999/xlink" x="0px" y="0px"
	 viewBox="0 0 49.711 49.711" style="enable-background:new 0 0 49.711 49.711;" xml:space="preserve">
<g>
	<path style="fill:#D13834;" d="M1.356,28.405c0,11.026,9.197,20.098,21,21.233l4,0.074c12.279-0.704,22-9.971,22-21.306
		c0-11.133-9.378-20.273-21.347-21.261c1.356-2.641,5.263-2.903,5.263-2.903c-3.025-0.728-5.008-0.417-6.304,0.229
		C25.45,1.15,24.606,0,24.606,0s-0.844,1.15-1.363,4.469c-1.296-0.645-3.278-0.957-6.304-0.229c0,0,3.953,0.263,5.287,2.947
		C10.486,8.376,1.356,17.419,1.356,28.405z"/>
	<path style="fill:#ED7161;" d="M6.914,34.001c-0.442,0-0.848-0.297-0.966-0.746c-1.01-3.83-0.482-8.005,1.485-11.756
		c0.256-0.489,0.86-0.679,1.351-0.421c0.489,0.257,0.678,0.861,0.421,1.35C7.47,25.735,7,29.399,7.882,32.745
		c0.141,0.534-0.178,1.081-0.712,1.222C7.085,33.989,6.999,34.001,6.914,34.001z"/>
	<path style="fill:#ED7161;" d="M11.663,18.5c-0.261,0-0.521-0.102-0.718-0.303c-0.385-0.396-0.375-1.029,0.021-1.414
		c0.868-0.844,1.824-1.611,2.84-2.278c0.461-0.303,1.081-0.175,1.385,0.286c0.303,0.461,0.175,1.082-0.287,1.385
		c-0.909,0.598-1.766,1.285-2.545,2.042C12.166,18.406,11.914,18.5,11.663,18.5z"/>
</g>
<g>
</g>
<g>
</g>
<g>
</g>
<g>
</g>
<g>
</g>
<g>
</g>
<g>
</g>
<g>
</g>
<g>
</g>
<g>
</g>
<g>
</g>
<g>
</g>
<g>
</g>
<g>
</g>
<g>
</g>
</svg>
