<?xml version="1.0" encoding="iso-8859-1"?>
<!-- Generator: Adobe Illustrator 18.0.0, SVG Export Plug-In . SVG Version: 6.00 Build 0)  -->
<!DOCTYPE svg PUBLIC "-//W3C//DTD SVG 1.1//EN" "http://www.w3.org/Graphics/SVG/1.1/DTD/svg11.dtd">
<svg version="1.1" id="Capa_1" xmlns="http://www.w3.org/2000/svg" xmlns:xlink="http://www.w3.org/1999/xlink" x="0px" y="0px"
	 viewBox="0 0 56 56" style="enable-background:new 0 0 56 56;" xml:space="preserve">
<g>
	<path style="fill:#C62A6A;" d="M47.156,32c1.416-0.995,2.344-2.638,2.344-4.5c0-2.138-1.223-3.987-3.005-4.897
		c0.001-0.035,0.005-0.068,0.005-0.103c0-2.578-1.776-4.735-4.169-5.331C41.735,14.776,39.578,13,37,13
		c-2.437,0-4.5,1.586-5.222,3.782C30.831,15.122,29.048,14,27,14c-1.862,0-3.505,0.928-4.5,2.344C21.505,14.928,19.862,14,18,14
		c-2.17,0-4.041,1.26-4.936,3.085C10.473,17.53,8.5,19.782,8.5,22.5c0,0.55,0.083,1.081,0.234,1.582
		C7.381,25.084,6.5,26.687,6.5,28.5c0,1.839,0.906,3.463,2.292,4.461C7.987,33.918,7.5,35.152,7.5,36.5
		c0,2.744,2.012,5.013,4.641,5.426C11.733,42.694,11.5,43.57,11.5,44.5c0,2.578,1.776,4.735,4.169,5.331
		C16.265,52.224,18.422,54,21,54c1.159,0,2.232-0.36,3.119-0.972C25.034,54.792,26.875,56,29,56c1.947,0,3.654-1.015,4.632-2.542
		C34.35,53.802,35.151,54,36,54c2.877,0,5.234-2.21,5.476-5.024C44.29,48.734,46.5,46.377,46.5,43.5c0-0.682-0.13-1.331-0.356-1.934
		c1.972-0.836,3.356-2.789,3.356-5.066C49.5,34.638,48.572,32.995,47.156,32z"/>
	<g>
		<path style="fill:#659C35;" d="M26.976,0c0,0,0.043,0.016,0.106,0.041C27.144,0.016,27.187,0,27.187,0H26.976z"/>
		<path style="fill:#659C35;" d="M13.605,16.221C14.607,14.879,16.196,14,18,14c1.862,0,3.505,0.928,4.5,2.344
			C23.495,14.928,25.138,14,27,14c2.048,0,3.831,1.122,4.778,2.782C32.5,14.586,34.563,13,37,13c1.929,0,3.621,0.995,4.601,2.498
			c2.324-1.724,4.05-3.905,4.899-6.498c-9.925-3.375-13.016,1-13.016,1c-0.601-7.394-5.641-9.658-6.402-9.959
			C26.319,0.342,21.28,2.606,20.679,10c0,0-3.091-4.375-13.016-1C8.635,11.969,10.75,14.402,13.605,16.221z"/>
	</g>
	<path style="fill:#E53384;" d="M16.357,28.997c-1.243,0-2.535-0.461-3.593-1.61c-0.374-0.406-0.348-1.039,0.059-1.413
		c0.406-0.375,1.039-0.348,1.413,0.059c1.206,1.309,2.798,1.089,3.796,0.502c0.992-0.584,1.954-1.864,1.396-3.548
		c-0.174-0.524,0.111-1.09,0.635-1.263c0.525-0.173,1.09,0.111,1.263,0.635c0.872,2.635-0.517,4.862-2.281,5.9
		C18.27,28.715,17.329,28.997,16.357,28.997z"/>
	<path style="fill:#E53384;" d="M37.264,41.325c-1.243,0-2.535-0.461-3.593-1.61c-0.374-0.406-0.348-1.039,0.059-1.413
		c0.407-0.375,1.039-0.348,1.413,0.059c1.206,1.309,2.799,1.088,3.796,0.502c0.992-0.584,1.954-1.864,1.396-3.548
		c-0.174-0.524,0.111-1.09,0.635-1.263c0.524-0.175,1.09,0.111,1.263,0.635c0.872,2.635-0.517,4.862-2.281,5.9
		C39.177,41.043,38.236,41.325,37.264,41.325z"/>
	<path style="fill:#E53384;" d="M20.698,41.998c-0.227,0-0.45-0.014-0.669-0.042c-2.037-0.259-4.198-1.762-4.436-4.534
		c-0.047-0.55,0.36-1.035,0.911-1.082c0.549-0.048,1.035,0.36,1.082,0.911c0.152,1.774,1.547,2.574,2.696,2.721
		c1.142,0.141,2.686-0.279,3.276-1.952c0.183-0.521,0.756-0.796,1.275-0.61c0.521,0.184,0.794,0.754,0.61,1.275
		C24.62,41.021,22.571,41.998,20.698,41.998z"/>
	<path style="fill:#E53384;" d="M29.698,32.661c-0.227,0-0.45-0.014-0.669-0.042c-2.036-0.26-4.197-1.762-4.435-4.534
		c-0.047-0.55,0.36-1.035,0.911-1.082c0.548-0.047,1.035,0.36,1.082,0.911c0.152,1.774,1.547,2.574,2.696,2.72
		c1.142,0.147,2.686-0.278,3.276-1.952c0.183-0.521,0.756-0.796,1.275-0.61c0.521,0.184,0.794,0.754,0.61,1.275
		C33.62,31.684,31.571,32.661,29.698,32.661z"/>
	<path style="fill:#E53384;" d="M28.461,50.169c-1.303,0-2.657-0.5-3.722-1.751c-0.358-0.42-0.308-1.052,0.113-1.41
		c0.419-0.358,1.052-0.308,1.41,0.113c1.155,1.356,2.755,1.195,3.774,0.648c1.014-0.545,2.024-1.787,1.532-3.492
		c-0.153-0.531,0.153-1.085,0.684-1.238c0.531-0.153,1.085,0.153,1.238,0.684c0.77,2.667-0.704,4.839-2.507,5.808
		C30.243,49.928,29.364,50.169,28.461,50.169z"/>
	<path style="fill:#E53384;" d="M40.633,26.996c-0.958,0-1.886-0.274-2.653-0.72c-1.776-1.03-3.184-3.254-2.326-5.9
		c0.169-0.525,0.736-0.813,1.259-0.643c0.525,0.17,0.813,0.734,0.643,1.259c-0.549,1.694,0.426,2.973,1.427,3.554
		c0.996,0.579,2.583,0.788,3.777-0.526c0.372-0.407,1.003-0.439,1.413-0.067c0.409,0.372,0.438,1.004,0.067,1.413
		C43.182,26.529,41.883,26.996,40.633,26.996z"/>
</g>
<g>
</g>
<g>
</g>
<g>
</g>
<g>
</g>
<g>
</g>
<g>
</g>
<g>
</g>
<g>
</g>
<g>
</g>
<g>
</g>
<g>
</g>
<g>
</g>
<g>
</g>
<g>
</g>
<g>
</g>
</svg>
